<svg xmlns="http://www.w3.org/2000/svg" xmlns:xlink="http://www.w3.org/1999/xlink" id="Capa_1" x="0px" y="0px" viewBox="0 0 2560 1440" style="enable-background:new 0 0 2560 1440;" xml:space="preserve"><style type="text/css">	.st0{fill:#033778;}	.st1{opacity:0.15;fill:#FFFFFF;}</style><rect class="st0" width="2560" height="1440"></rect><path class="st1" d="M3266.3-8.9c0-6.9-3.1-9.5-9.3-11.4c-18.3-5.5-36.4-11.8-54.7-17.3c-150.7-45.5-304.3-77.8-460.8-96.7 c-99.6-12-247.2-18.7-347.5-19.8h0c-100.3,1.1-247.9,7.8-347.5,19.8c-156.5,18.8-310.1,51.2-460.8,96.7 c-18.3,5.5-36.4,11.8-54.7,17.3c-6.2,1.9-9.3,4.5-9.3,11.4c-0.2,110.6-1.5,221.1-0.4,331.6c0.6,57.2,4.7,114.4,8.8,171.4 c7.1,99.3,21.2,197.7,43.3,294.9c24.9,109.4,60.5,215,111,315.6c70.4,140.4,165.6,262,282.9,367.1 c120.5,107.9,274.7,193.1,419.6,264.9c2.1,1,4.5,1.6,6.9,1.6h0.8c2.4,0,4.8-0.5,6.9-1.6c144.8-71.8,299.1-156.9,419.5-264.9 c42.6-38.2,82.3-78.6,119-121.3c-10.2,4.6-20.5,8.9-30.9,13.1c10.4-4.2,20.8-8.6,30.9-13.1c64.2-74.7,119.1-156.5,163.9-245.8 c20.1-40.1,37.8-81,53.4-122.6c0-0.1,0.1-0.2,0.1-0.3c23.6-62.7,42.5-127,57.4-192.7c22.1-97.2,36.2-195.6,43.3-294.9 c4.1-57.1,8.2-114.3,8.8-171.4C3267.8,212.3,3266.4,101.7,3266.3-8.9z"></path><path class="st1" d="M3046.5-938c-3.7-7.5-8.5-8.7-16.3-7.5c-23,3.8-46.1,6.5-69.1,10.3c-189.1,30.8-374.2,77.4-555.4,140.4 c-115.3,40.1-280.2,111.6-390.5,164l0,0C1906.2-576,1748.5-489.9,1646-423.5c-161,104.2-311.6,221.6-452.1,351.8 c-17.1,15.8-33.5,32.4-50.6,48.2c-5.7,5.3-7.8,9.9-4.1,17.4c58.9,120.9,116.4,242.5,176.7,362.8c31.2,62.2,66.2,122.5,101.2,182.7 c60.8,104.8,128.7,204.8,204.8,299.3c85.6,106.3,181,202.7,289.9,285.7c152,115.8,321,198,505.3,250.2 c189.4,53.6,403.4,64.3,600.1,65.5c2.8,0,5.7-0.7,8.3-1.9l0.8-0.4c2.6-1.3,4.9-3.1,6.7-5.4c120-155.9,243.1-331.3,317.2-513.6 c26.2-64.5,48-129.9,65.3-196.1c-8.7,10.4-17.7,20.7-26.8,30.9c9.1-10.2,18.1-20.5,26.8-30.9c30.3-116,46.6-234.7,47.9-356.3 c0.6-54.6-2-108.7-7.1-162.6c0-0.1,0-0.3,0-0.4c-7.7-81.1-21.4-161.5-40.1-241.3c-27.7-118.1-64.9-233.1-110.2-345.5 c-26-64.6-52.1-129.3-82-192.1C3166.2-697.1,3105.7-817.2,3046.5-938z"></path></svg>